<mxfile host="app.diagrams.net" modified="2022-05-29T19:51:05.461Z" agent="5.0 (X11; Linux x86_64) AppleWebKit/537.36 (KHTML, like Gecko) Chrome/89.0.4343.0 Safari/537.36" etag="F1vfFvJEglkSkJMgz_oN" version="18.1.2" type="github" pages="3">
  <diagram id="YVrJ-4OCrlVwxC4zB-cr" name="General">
    <mxGraphModel dx="838" dy="744" grid="1" gridSize="10" guides="1" tooltips="1" connect="1" arrows="1" fold="1" page="1" pageScale="1" pageWidth="1100" pageHeight="850" math="0" shadow="0">
      <root>
        <mxCell id="0" />
        <mxCell id="1" parent="0" />
        <mxCell id="ehPD7D3Yyg8powB8N1Of-1" value="authenticator" style="whiteSpace=wrap;html=1;aspect=fixed;" parent="1" vertex="1">
          <mxGeometry x="290" y="200" width="80" height="80" as="geometry" />
        </mxCell>
        <mxCell id="ehPD7D3Yyg8powB8N1Of-2" value="STS" style="whiteSpace=wrap;html=1;aspect=fixed;" parent="1" vertex="1">
          <mxGeometry x="580" y="120" width="80" height="80" as="geometry" />
        </mxCell>
        <mxCell id="ehPD7D3Yyg8powB8N1Of-3" value="Client" style="whiteSpace=wrap;html=1;aspect=fixed;" parent="1" vertex="1">
          <mxGeometry x="80" y="110" width="80" height="80" as="geometry" />
        </mxCell>
        <mxCell id="ehPD7D3Yyg8powB8N1Of-17" style="edgeStyle=orthogonalEdgeStyle;rounded=0;orthogonalLoop=1;jettySize=auto;html=1;entryX=0.638;entryY=1.013;entryDx=0;entryDy=0;entryPerimeter=0;" parent="1" source="ehPD7D3Yyg8powB8N1Of-4" target="ehPD7D3Yyg8powB8N1Of-1" edge="1">
          <mxGeometry relative="1" as="geometry" />
        </mxCell>
        <mxCell id="ehPD7D3Yyg8powB8N1Of-18" style="edgeStyle=orthogonalEdgeStyle;rounded=0;orthogonalLoop=1;jettySize=auto;html=1;entryX=0.675;entryY=1.038;entryDx=0;entryDy=0;entryPerimeter=0;" parent="1" source="ehPD7D3Yyg8powB8N1Of-4" target="ehPD7D3Yyg8powB8N1Of-12" edge="1">
          <mxGeometry relative="1" as="geometry">
            <Array as="points">
              <mxPoint x="260" y="450" />
              <mxPoint x="260" y="293" />
            </Array>
          </mxGeometry>
        </mxCell>
        <mxCell id="ehPD7D3Yyg8powB8N1Of-19" style="edgeStyle=orthogonalEdgeStyle;rounded=0;orthogonalLoop=1;jettySize=auto;html=1;" parent="1" source="ehPD7D3Yyg8powB8N1Of-4" target="ehPD7D3Yyg8powB8N1Of-2" edge="1">
          <mxGeometry relative="1" as="geometry" />
        </mxCell>
        <mxCell id="ehPD7D3Yyg8powB8N1Of-20" style="edgeStyle=orthogonalEdgeStyle;rounded=0;orthogonalLoop=1;jettySize=auto;html=1;" parent="1" source="ehPD7D3Yyg8powB8N1Of-4" target="ehPD7D3Yyg8powB8N1Of-13" edge="1">
          <mxGeometry relative="1" as="geometry">
            <Array as="points">
              <mxPoint x="350" y="530" />
            </Array>
          </mxGeometry>
        </mxCell>
        <mxCell id="ehPD7D3Yyg8powB8N1Of-4" value="Client" style="whiteSpace=wrap;html=1;aspect=fixed;" parent="1" vertex="1">
          <mxGeometry x="310" y="410" width="80" height="80" as="geometry" />
        </mxCell>
        <mxCell id="ehPD7D3Yyg8powB8N1Of-5" value="Client" style="whiteSpace=wrap;html=1;aspect=fixed;" parent="1" vertex="1">
          <mxGeometry x="60" y="280" width="80" height="80" as="geometry" />
        </mxCell>
        <mxCell id="ehPD7D3Yyg8powB8N1Of-6" value="Client" style="whiteSpace=wrap;html=1;aspect=fixed;" parent="1" vertex="1">
          <mxGeometry x="160" y="10" width="80" height="80" as="geometry" />
        </mxCell>
        <mxCell id="ehPD7D3Yyg8powB8N1Of-7" value="Client" style="whiteSpace=wrap;html=1;aspect=fixed;" parent="1" vertex="1">
          <mxGeometry x="150" y="420" width="80" height="80" as="geometry" />
        </mxCell>
        <mxCell id="ehPD7D3Yyg8powB8N1Of-8" value="Client" style="whiteSpace=wrap;html=1;aspect=fixed;" parent="1" vertex="1">
          <mxGeometry x="360" y="10" width="80" height="80" as="geometry" />
        </mxCell>
        <mxCell id="ehPD7D3Yyg8powB8N1Of-9" value="Client" style="whiteSpace=wrap;html=1;aspect=fixed;" parent="1" vertex="1">
          <mxGeometry x="450" y="350" width="80" height="80" as="geometry" />
        </mxCell>
        <mxCell id="ehPD7D3Yyg8powB8N1Of-10" value="Service" style="ellipse;whiteSpace=wrap;html=1;aspect=fixed;" parent="1" vertex="1">
          <mxGeometry x="440" y="500" width="80" height="80" as="geometry" />
        </mxCell>
        <mxCell id="ehPD7D3Yyg8powB8N1Of-11" value="Service" style="ellipse;whiteSpace=wrap;html=1;aspect=fixed;" parent="1" vertex="1">
          <mxGeometry x="260" y="40" width="80" height="80" as="geometry" />
        </mxCell>
        <mxCell id="7N7fR89nuQmcwuyF4sBW-2" style="edgeStyle=orthogonalEdgeStyle;rounded=0;orthogonalLoop=1;jettySize=auto;html=1;" edge="1" parent="1" source="ehPD7D3Yyg8powB8N1Of-12" target="ehPD7D3Yyg8powB8N1Of-2">
          <mxGeometry relative="1" as="geometry">
            <Array as="points">
              <mxPoint x="220" y="160" />
            </Array>
          </mxGeometry>
        </mxCell>
        <mxCell id="ehPD7D3Yyg8powB8N1Of-12" value="Service" style="ellipse;whiteSpace=wrap;html=1;aspect=fixed;" parent="1" vertex="1">
          <mxGeometry x="180" y="210" width="80" height="80" as="geometry" />
        </mxCell>
        <mxCell id="X4Kf2DB4qoyn9mGoZTyT-1" style="edgeStyle=orthogonalEdgeStyle;rounded=0;orthogonalLoop=1;jettySize=auto;html=1;entryX=0.9;entryY=1.038;entryDx=0;entryDy=0;entryPerimeter=0;" edge="1" parent="1" source="ehPD7D3Yyg8powB8N1Of-13" target="ehPD7D3Yyg8powB8N1Of-2">
          <mxGeometry relative="1" as="geometry">
            <Array as="points">
              <mxPoint x="652" y="630" />
            </Array>
          </mxGeometry>
        </mxCell>
        <mxCell id="ehPD7D3Yyg8powB8N1Of-13" value="Service" style="ellipse;whiteSpace=wrap;html=1;aspect=fixed;" parent="1" vertex="1">
          <mxGeometry x="40" y="550" width="80" height="80" as="geometry" />
        </mxCell>
        <mxCell id="ehPD7D3Yyg8powB8N1Of-14" value="Service" style="ellipse;whiteSpace=wrap;html=1;aspect=fixed;" parent="1" vertex="1">
          <mxGeometry x="670" y="290" width="80" height="80" as="geometry" />
        </mxCell>
        <mxCell id="ehPD7D3Yyg8powB8N1Of-15" value="Service" style="ellipse;whiteSpace=wrap;html=1;aspect=fixed;" parent="1" vertex="1">
          <mxGeometry x="450" y="190" width="80" height="80" as="geometry" />
        </mxCell>
        <mxCell id="ehPD7D3Yyg8powB8N1Of-16" value="Service" style="ellipse;whiteSpace=wrap;html=1;aspect=fixed;" parent="1" vertex="1">
          <mxGeometry x="670" y="480" width="80" height="80" as="geometry" />
        </mxCell>
        <mxCell id="ehPD7D3Yyg8powB8N1Of-21" value="client authenticates and can henceforth assert its identity" style="text;html=1;strokeColor=none;fillColor=none;align=center;verticalAlign=middle;whiteSpace=wrap;rounded=0;" parent="1" vertex="1">
          <mxGeometry x="310" y="675" width="120" height="50" as="geometry" />
        </mxCell>
        <mxCell id="ehPD7D3Yyg8powB8N1Of-23" value="the client then can acquire the tokens it needs to access the services it needs." style="text;html=1;strokeColor=none;fillColor=none;align=center;verticalAlign=middle;whiteSpace=wrap;rounded=0;" parent="1" vertex="1">
          <mxGeometry x="480" y="690" width="120" height="50" as="geometry" />
        </mxCell>
        <mxCell id="7N7fR89nuQmcwuyF4sBW-4" value="services communicate with the token exchange to validate or decrypt access tokens" style="text;html=1;strokeColor=none;fillColor=none;align=left;verticalAlign=middle;whiteSpace=wrap;rounded=0;" vertex="1" parent="1">
          <mxGeometry x="680" y="680" width="150" height="40" as="geometry" />
        </mxCell>
        <mxCell id="7N7fR89nuQmcwuyF4sBW-5" value="the STS authenticates the client, then performs the exchange requested" style="text;html=1;strokeColor=none;fillColor=none;align=left;verticalAlign=middle;whiteSpace=wrap;rounded=0;" vertex="1" parent="1">
          <mxGeometry x="730" y="80" width="140" height="30" as="geometry" />
        </mxCell>
        <mxCell id="X4Kf2DB4qoyn9mGoZTyT-2" value="the authentication involves the validation of the token, matching it with the registered client id and verify the audience subject_token_type and requested_token_type" style="text;html=1;strokeColor=none;fillColor=none;align=left;verticalAlign=middle;whiteSpace=wrap;rounded=0;" vertex="1" parent="1">
          <mxGeometry x="780" y="180" width="210" height="30" as="geometry" />
        </mxCell>
      </root>
    </mxGraphModel>
  </diagram>
  <diagram id="UWZ0nsKvOJkC-e7fJ5gk" name="anatomy">
    <mxGraphModel dx="838" dy="744" grid="1" gridSize="10" guides="1" tooltips="1" connect="1" arrows="1" fold="1" page="1" pageScale="1" pageWidth="1100" pageHeight="850" math="0" shadow="0">
      <root>
        <mxCell id="0" />
        <mxCell id="1" parent="0" />
        <mxCell id="aa8GGaYEE2ObPrm9NSy6-1" value="anatomy of a token" style="text;html=1;strokeColor=none;fillColor=none;align=left;verticalAlign=middle;whiteSpace=wrap;rounded=0;" vertex="1" parent="1">
          <mxGeometry x="40" y="50" width="140" height="30" as="geometry" />
        </mxCell>
        <mxCell id="aa8GGaYEE2ObPrm9NSy6-2" value="header.payload.signature" style="text;html=1;strokeColor=none;fillColor=none;align=left;verticalAlign=middle;whiteSpace=wrap;rounded=0;" vertex="1" parent="1">
          <mxGeometry x="20" y="100" width="60" height="30" as="geometry" />
        </mxCell>
        <mxCell id="aa8GGaYEE2ObPrm9NSy6-3" value="the exchange will possibly modify the header, certainly the signature but the payload remains intact." style="text;html=1;strokeColor=none;fillColor=none;align=left;verticalAlign=middle;whiteSpace=wrap;rounded=0;" vertex="1" parent="1">
          <mxGeometry x="250" y="120" width="290" height="30" as="geometry" />
        </mxCell>
        <mxCell id="aa8GGaYEE2ObPrm9NSy6-4" value="the output token might echo the payload or discard and replace it with a payload of its own." style="text;html=1;strokeColor=none;fillColor=none;align=left;verticalAlign=middle;whiteSpace=wrap;rounded=0;" vertex="1" parent="1">
          <mxGeometry x="250" y="230" width="290" height="30" as="geometry" />
        </mxCell>
      </root>
    </mxGraphModel>
  </diagram>
  <diagram id="FKdYvpjDs7IDzHLWoXFI" name="Classes">
    <mxGraphModel dx="838" dy="744" grid="1" gridSize="10" guides="1" tooltips="1" connect="1" arrows="1" fold="1" page="1" pageScale="1" pageWidth="1100" pageHeight="850" math="0" shadow="0">
      <root>
        <mxCell id="0" />
        <mxCell id="1" parent="0" />
        <mxCell id="RuVR8CBOVKHGjoYvXoHK-1" value="Issuer" style="swimlane;fontStyle=1;align=center;verticalAlign=top;childLayout=stackLayout;horizontal=1;startSize=26;horizontalStack=0;resizeParent=1;resizeParentMax=0;resizeLast=0;collapsible=1;marginBottom=0;" vertex="1" parent="1">
          <mxGeometry x="40" y="470" width="160" height="86" as="geometry" />
        </mxCell>
        <mxCell id="RuVR8CBOVKHGjoYvXoHK-2" value="+ field: type" style="text;strokeColor=none;fillColor=none;align=left;verticalAlign=top;spacingLeft=4;spacingRight=4;overflow=hidden;rotatable=0;points=[[0,0.5],[1,0.5]];portConstraint=eastwest;" vertex="1" parent="RuVR8CBOVKHGjoYvXoHK-1">
          <mxGeometry y="26" width="160" height="26" as="geometry" />
        </mxCell>
        <mxCell id="RuVR8CBOVKHGjoYvXoHK-3" value="" style="line;strokeWidth=1;fillColor=none;align=left;verticalAlign=middle;spacingTop=-1;spacingLeft=3;spacingRight=3;rotatable=0;labelPosition=right;points=[];portConstraint=eastwest;" vertex="1" parent="RuVR8CBOVKHGjoYvXoHK-1">
          <mxGeometry y="52" width="160" height="8" as="geometry" />
        </mxCell>
        <mxCell id="RuVR8CBOVKHGjoYvXoHK-4" value="+ method(type): type" style="text;strokeColor=none;fillColor=none;align=left;verticalAlign=top;spacingLeft=4;spacingRight=4;overflow=hidden;rotatable=0;points=[[0,0.5],[1,0.5]];portConstraint=eastwest;" vertex="1" parent="RuVR8CBOVKHGjoYvXoHK-1">
          <mxGeometry y="60" width="160" height="26" as="geometry" />
        </mxCell>
        <mxCell id="RuVR8CBOVKHGjoYvXoHK-6" value="Client" style="swimlane;fontStyle=1;align=center;verticalAlign=top;childLayout=stackLayout;horizontal=1;startSize=26;horizontalStack=0;resizeParent=1;resizeParentMax=0;resizeLast=0;collapsible=1;marginBottom=0;" vertex="1" parent="1">
          <mxGeometry x="220" y="40" width="160" height="86" as="geometry" />
        </mxCell>
        <mxCell id="RuVR8CBOVKHGjoYvXoHK-7" value="+ field: type" style="text;strokeColor=none;fillColor=none;align=left;verticalAlign=top;spacingLeft=4;spacingRight=4;overflow=hidden;rotatable=0;points=[[0,0.5],[1,0.5]];portConstraint=eastwest;" vertex="1" parent="RuVR8CBOVKHGjoYvXoHK-6">
          <mxGeometry y="26" width="160" height="26" as="geometry" />
        </mxCell>
        <mxCell id="RuVR8CBOVKHGjoYvXoHK-8" value="" style="line;strokeWidth=1;fillColor=none;align=left;verticalAlign=middle;spacingTop=-1;spacingLeft=3;spacingRight=3;rotatable=0;labelPosition=right;points=[];portConstraint=eastwest;" vertex="1" parent="RuVR8CBOVKHGjoYvXoHK-6">
          <mxGeometry y="52" width="160" height="8" as="geometry" />
        </mxCell>
        <mxCell id="RuVR8CBOVKHGjoYvXoHK-9" value="+ method(type): type" style="text;strokeColor=none;fillColor=none;align=left;verticalAlign=top;spacingLeft=4;spacingRight=4;overflow=hidden;rotatable=0;points=[[0,0.5],[1,0.5]];portConstraint=eastwest;" vertex="1" parent="RuVR8CBOVKHGjoYvXoHK-6">
          <mxGeometry y="60" width="160" height="26" as="geometry" />
        </mxCell>
        <mxCell id="RuVR8CBOVKHGjoYvXoHK-10" value="Validator" style="swimlane;fontStyle=1;align=center;verticalAlign=top;childLayout=stackLayout;horizontal=1;startSize=26;horizontalStack=0;resizeParent=1;resizeParentMax=0;resizeLast=0;collapsible=1;marginBottom=0;" vertex="1" parent="1">
          <mxGeometry x="220" y="470" width="160" height="86" as="geometry" />
        </mxCell>
        <mxCell id="RuVR8CBOVKHGjoYvXoHK-11" value="+ field: type" style="text;strokeColor=none;fillColor=none;align=left;verticalAlign=top;spacingLeft=4;spacingRight=4;overflow=hidden;rotatable=0;points=[[0,0.5],[1,0.5]];portConstraint=eastwest;" vertex="1" parent="RuVR8CBOVKHGjoYvXoHK-10">
          <mxGeometry y="26" width="160" height="26" as="geometry" />
        </mxCell>
        <mxCell id="RuVR8CBOVKHGjoYvXoHK-12" value="" style="line;strokeWidth=1;fillColor=none;align=left;verticalAlign=middle;spacingTop=-1;spacingLeft=3;spacingRight=3;rotatable=0;labelPosition=right;points=[];portConstraint=eastwest;" vertex="1" parent="RuVR8CBOVKHGjoYvXoHK-10">
          <mxGeometry y="52" width="160" height="8" as="geometry" />
        </mxCell>
        <mxCell id="RuVR8CBOVKHGjoYvXoHK-13" value="+ method(type): type" style="text;strokeColor=none;fillColor=none;align=left;verticalAlign=top;spacingLeft=4;spacingRight=4;overflow=hidden;rotatable=0;points=[[0,0.5],[1,0.5]];portConstraint=eastwest;" vertex="1" parent="RuVR8CBOVKHGjoYvXoHK-10">
          <mxGeometry y="60" width="160" height="26" as="geometry" />
        </mxCell>
        <mxCell id="RuVR8CBOVKHGjoYvXoHK-14" value="Authenticator" style="swimlane;fontStyle=1;align=center;verticalAlign=top;childLayout=stackLayout;horizontal=1;startSize=26;horizontalStack=0;resizeParent=1;resizeParentMax=0;resizeLast=0;collapsible=1;marginBottom=0;" vertex="1" parent="1">
          <mxGeometry x="220" y="300" width="160" height="86" as="geometry" />
        </mxCell>
        <mxCell id="RuVR8CBOVKHGjoYvXoHK-15" value="+ field: type" style="text;strokeColor=none;fillColor=none;align=left;verticalAlign=top;spacingLeft=4;spacingRight=4;overflow=hidden;rotatable=0;points=[[0,0.5],[1,0.5]];portConstraint=eastwest;" vertex="1" parent="RuVR8CBOVKHGjoYvXoHK-14">
          <mxGeometry y="26" width="160" height="26" as="geometry" />
        </mxCell>
        <mxCell id="RuVR8CBOVKHGjoYvXoHK-16" value="" style="line;strokeWidth=1;fillColor=none;align=left;verticalAlign=middle;spacingTop=-1;spacingLeft=3;spacingRight=3;rotatable=0;labelPosition=right;points=[];portConstraint=eastwest;" vertex="1" parent="RuVR8CBOVKHGjoYvXoHK-14">
          <mxGeometry y="52" width="160" height="8" as="geometry" />
        </mxCell>
        <mxCell id="RuVR8CBOVKHGjoYvXoHK-17" value="+ method(type): type" style="text;strokeColor=none;fillColor=none;align=left;verticalAlign=top;spacingLeft=4;spacingRight=4;overflow=hidden;rotatable=0;points=[[0,0.5],[1,0.5]];portConstraint=eastwest;" vertex="1" parent="RuVR8CBOVKHGjoYvXoHK-14">
          <mxGeometry y="60" width="160" height="26" as="geometry" />
        </mxCell>
        <mxCell id="RuVR8CBOVKHGjoYvXoHK-18" value="Token Service" style="html=1;" vertex="1" parent="1">
          <mxGeometry x="245" y="200" width="110" height="50" as="geometry" />
        </mxCell>
        <mxCell id="RuVR8CBOVKHGjoYvXoHK-19" value="Enricher" style="swimlane;fontStyle=1;align=center;verticalAlign=top;childLayout=stackLayout;horizontal=1;startSize=26;horizontalStack=0;resizeParent=1;resizeParentMax=0;resizeLast=0;collapsible=1;marginBottom=0;" vertex="1" parent="1">
          <mxGeometry x="400" y="470" width="160" height="86" as="geometry" />
        </mxCell>
        <mxCell id="RuVR8CBOVKHGjoYvXoHK-20" value="+ field: type" style="text;strokeColor=none;fillColor=none;align=left;verticalAlign=top;spacingLeft=4;spacingRight=4;overflow=hidden;rotatable=0;points=[[0,0.5],[1,0.5]];portConstraint=eastwest;" vertex="1" parent="RuVR8CBOVKHGjoYvXoHK-19">
          <mxGeometry y="26" width="160" height="26" as="geometry" />
        </mxCell>
        <mxCell id="RuVR8CBOVKHGjoYvXoHK-21" value="" style="line;strokeWidth=1;fillColor=none;align=left;verticalAlign=middle;spacingTop=-1;spacingLeft=3;spacingRight=3;rotatable=0;labelPosition=right;points=[];portConstraint=eastwest;" vertex="1" parent="RuVR8CBOVKHGjoYvXoHK-19">
          <mxGeometry y="52" width="160" height="8" as="geometry" />
        </mxCell>
        <mxCell id="RuVR8CBOVKHGjoYvXoHK-22" value="+ method(type): type" style="text;strokeColor=none;fillColor=none;align=left;verticalAlign=top;spacingLeft=4;spacingRight=4;overflow=hidden;rotatable=0;points=[[0,0.5],[1,0.5]];portConstraint=eastwest;" vertex="1" parent="RuVR8CBOVKHGjoYvXoHK-19">
          <mxGeometry y="60" width="160" height="26" as="geometry" />
        </mxCell>
        <mxCell id="RuVR8CBOVKHGjoYvXoHK-23" value="Decryptor" style="swimlane;fontStyle=1;align=center;verticalAlign=top;childLayout=stackLayout;horizontal=1;startSize=26;horizontalStack=0;resizeParent=1;resizeParentMax=0;resizeLast=0;collapsible=1;marginBottom=0;" vertex="1" parent="1">
          <mxGeometry x="580" y="470" width="160" height="86" as="geometry" />
        </mxCell>
        <mxCell id="RuVR8CBOVKHGjoYvXoHK-24" value="+ field: type" style="text;strokeColor=none;fillColor=none;align=left;verticalAlign=top;spacingLeft=4;spacingRight=4;overflow=hidden;rotatable=0;points=[[0,0.5],[1,0.5]];portConstraint=eastwest;" vertex="1" parent="RuVR8CBOVKHGjoYvXoHK-23">
          <mxGeometry y="26" width="160" height="26" as="geometry" />
        </mxCell>
        <mxCell id="RuVR8CBOVKHGjoYvXoHK-25" value="" style="line;strokeWidth=1;fillColor=none;align=left;verticalAlign=middle;spacingTop=-1;spacingLeft=3;spacingRight=3;rotatable=0;labelPosition=right;points=[];portConstraint=eastwest;" vertex="1" parent="RuVR8CBOVKHGjoYvXoHK-23">
          <mxGeometry y="52" width="160" height="8" as="geometry" />
        </mxCell>
        <mxCell id="RuVR8CBOVKHGjoYvXoHK-26" value="+ method(type): type" style="text;strokeColor=none;fillColor=none;align=left;verticalAlign=top;spacingLeft=4;spacingRight=4;overflow=hidden;rotatable=0;points=[[0,0.5],[1,0.5]];portConstraint=eastwest;" vertex="1" parent="RuVR8CBOVKHGjoYvXoHK-23">
          <mxGeometry y="60" width="160" height="26" as="geometry" />
        </mxCell>
        <mxCell id="RuVR8CBOVKHGjoYvXoHK-27" value="Encryptor" style="swimlane;fontStyle=1;align=center;verticalAlign=top;childLayout=stackLayout;horizontal=1;startSize=26;horizontalStack=0;resizeParent=1;resizeParentMax=0;resizeLast=0;collapsible=1;marginBottom=0;" vertex="1" parent="1">
          <mxGeometry x="760" y="470" width="160" height="86" as="geometry" />
        </mxCell>
        <mxCell id="RuVR8CBOVKHGjoYvXoHK-28" value="+ field: type" style="text;strokeColor=none;fillColor=none;align=left;verticalAlign=top;spacingLeft=4;spacingRight=4;overflow=hidden;rotatable=0;points=[[0,0.5],[1,0.5]];portConstraint=eastwest;" vertex="1" parent="RuVR8CBOVKHGjoYvXoHK-27">
          <mxGeometry y="26" width="160" height="26" as="geometry" />
        </mxCell>
        <mxCell id="RuVR8CBOVKHGjoYvXoHK-29" value="" style="line;strokeWidth=1;fillColor=none;align=left;verticalAlign=middle;spacingTop=-1;spacingLeft=3;spacingRight=3;rotatable=0;labelPosition=right;points=[];portConstraint=eastwest;" vertex="1" parent="RuVR8CBOVKHGjoYvXoHK-27">
          <mxGeometry y="52" width="160" height="8" as="geometry" />
        </mxCell>
        <mxCell id="RuVR8CBOVKHGjoYvXoHK-30" value="+ method(type): type" style="text;strokeColor=none;fillColor=none;align=left;verticalAlign=top;spacingLeft=4;spacingRight=4;overflow=hidden;rotatable=0;points=[[0,0.5],[1,0.5]];portConstraint=eastwest;" vertex="1" parent="RuVR8CBOVKHGjoYvXoHK-27">
          <mxGeometry y="60" width="160" height="26" as="geometry" />
        </mxCell>
        <mxCell id="RuVR8CBOVKHGjoYvXoHK-31" value="Configurator" style="swimlane;fontStyle=1;align=center;verticalAlign=top;childLayout=stackLayout;horizontal=1;startSize=26;horizontalStack=0;resizeParent=1;resizeParentMax=0;resizeLast=0;collapsible=1;marginBottom=0;" vertex="1" parent="1">
          <mxGeometry x="570" y="160" width="250" height="160" as="geometry" />
        </mxCell>
        <mxCell id="RuVR8CBOVKHGjoYvXoHK-32" value="+ field: type" style="text;strokeColor=none;fillColor=none;align=left;verticalAlign=top;spacingLeft=4;spacingRight=4;overflow=hidden;rotatable=0;points=[[0,0.5],[1,0.5]];portConstraint=eastwest;" vertex="1" parent="RuVR8CBOVKHGjoYvXoHK-31">
          <mxGeometry y="26" width="250" height="26" as="geometry" />
        </mxCell>
        <mxCell id="RuVR8CBOVKHGjoYvXoHK-33" value="" style="line;strokeWidth=1;fillColor=none;align=left;verticalAlign=middle;spacingTop=-1;spacingLeft=3;spacingRight=3;rotatable=0;labelPosition=right;points=[];portConstraint=eastwest;" vertex="1" parent="RuVR8CBOVKHGjoYvXoHK-31">
          <mxGeometry y="52" width="250" height="8" as="geometry" />
        </mxCell>
        <mxCell id="RuVR8CBOVKHGjoYvXoHK-34" value="+ addAuthenticator(authenticator): bool&#xa;+ addIsser(issuer): bool&#xa;+ addValidator(validator): bool&#xa;+ addEnricher(enricher): bool&#xa;+ addDecryptor(decryptor): bool&#xa;+ addEncryptor(encryptor): bool&#xa;" style="text;strokeColor=none;fillColor=none;align=left;verticalAlign=top;spacingLeft=4;spacingRight=4;overflow=hidden;rotatable=0;points=[[0,0.5],[1,0.5]];portConstraint=eastwest;" vertex="1" parent="RuVR8CBOVKHGjoYvXoHK-31">
          <mxGeometry y="60" width="250" height="100" as="geometry" />
        </mxCell>
        <mxCell id="RuVR8CBOVKHGjoYvXoHK-35" style="edgeStyle=orthogonalEdgeStyle;rounded=0;orthogonalLoop=1;jettySize=auto;html=1;entryX=1;entryY=0.5;entryDx=0;entryDy=0;" edge="1" parent="1" source="RuVR8CBOVKHGjoYvXoHK-34" target="RuVR8CBOVKHGjoYvXoHK-18">
          <mxGeometry relative="1" as="geometry">
            <mxPoint x="430" y="220" as="targetPoint" />
          </mxGeometry>
        </mxCell>
      </root>
    </mxGraphModel>
  </diagram>
</mxfile>
